<?xml version="1.0" encoding="UTF-8" standalone="no"?>
<svg width="378px" height="166px" viewBox="0 0 378 166" version="1.1" xmlns="http://www.w3.org/2000/svg" xmlns:xlink="http://www.w3.org/1999/xlink" xmlns:sketch="http://www.bohemiancoding.com/sketch/ns">
    <!-- Generator: Sketch 3.5.2 (25235) - http://www.bohemiancoding.com/sketch -->
    <title>AirPortr Logo</title>
    <desc>Created with Sketch.</desc>
    <defs>
        <rect id="path-1" x="0" y="0" width="383.069674" height="178.802165"></rect>
        <path id="path-3" d="M0,1.06643607 L551.106509,1.06643607 L551.106509,166.180835 L0,166.180835 L0,1.06643607 Z"></path>
        <path id="path-5" d="M0,1.06643607 L551.106509,1.06643607 L551.106509,166.180835 L0,166.180835 L0,1.06643607 Z"></path>
        <path id="path-7" d="M0,1.06643607 L551.106509,1.06643607 L551.106509,166.180835 L0,166.180835 L0,1.06643607 Z"></path>
    </defs>
    <g id="Page-1" stroke="none" stroke-width="1" fill="none" fill-rule="evenodd" sketch:type="MSPage">
        <g id="0.1-Splash" sketch:type="MSArtboardGroup" transform="translate(-529.000000, -165.000000)">
            <g id="AirPortr-Logo" sketch:type="MSLayerGroup" transform="translate(527.499503, 157.000000)">
                <mask id="mask-2" sketch:name="Mask" fill="white">
                    <use xlink:href="#path-1"></use>
                </mask>
                <use id="Mask" sketch:type="MSShapeGroup" xlink:href="#path-1"></use>
                <g mask="url(#mask-2)">
                    <g transform="translate(2.214276, 7.225931)">
                        <g id="Group-3" stroke="none" stroke-width="1" fill="none" fill-rule="evenodd" sketch:type="MSLayerGroup">
                            <mask id="mask-4" sketch:name="Clip 2" fill="white">
                                <use xlink:href="#path-3"></use>
                            </mask>
                            <g id="Clip-2"></g>
                            <path d="M368.344858,8.14639391 C368.674293,8.14639391 368.9927,8.13723434 369.284918,8.11629817 C369.577136,8.09797902 369.830759,8.03909605 370.062328,7.94488329 C370.284248,7.84936203 370.471709,7.70280885 370.608169,7.50784078 C370.744629,7.31025569 370.813548,7.03415998 370.813548,6.68478767 C370.813548,6.38906429 370.744629,6.15091538 370.63298,5.97688348 C370.507547,5.80285158 370.346275,5.66676649 370.158815,5.5686282 C369.968597,5.47834097 369.745299,5.40637289 369.495811,5.37758566 C369.246323,5.34225588 368.998213,5.33047928 368.762509,5.33047928 L366.834146,5.33047928 L366.834146,8.14639391 L368.344858,8.14639391 Z M368.9927,4.20777726 C370.105058,4.20777726 370.925198,4.41713895 371.460012,4.83978784 C371.993447,5.25851121 372.262233,5.89706434 372.262233,6.74759617 C372.262233,7.54317057 372.030664,8.12807477 371.559256,8.49969175 C371.086469,8.87785129 370.503411,9.09244702 369.807326,9.16048956 L372.474504,13.0742445 L370.912792,13.0742445 L368.375183,9.26778742 L366.834146,9.26778742 L366.834146,13.0742445 L365.381327,13.0742445 L365.381327,4.20777726 L368.9927,4.20777726 Z M362.395742,11.2030745 C362.737582,11.9881808 363.191071,12.6777658 363.787912,13.257436 C364.377862,13.8410317 365.073947,14.3029359 365.88306,14.631372 C366.683902,14.9624252 367.563313,15.128606 368.500616,15.128606 C369.426892,15.128606 370.284248,14.9624252 371.086469,14.631372 C371.88869,14.3029359 372.579262,13.8410317 373.170589,13.257436 C373.760539,12.6777658 374.22092,11.9881808 374.557246,11.2030745 C374.892194,10.4088086 375.067249,9.54650016 375.067249,8.61484068 C375.067249,7.7093514 374.892194,6.8627451 374.557246,6.07371326 C374.22092,5.29384099 373.760539,4.60948999 373.170589,4.0376709 C372.579262,3.4658518 371.88869,3.00787312 371.086469,2.67681996 C370.284248,2.34314978 369.426892,2.18089448 368.500616,2.18089448 C367.563313,2.18089448 366.683902,2.34314978 365.88306,2.67681996 C365.073947,3.00787312 364.377862,3.4658518 363.787912,4.0376709 C363.191071,4.60948999 362.737582,5.29384099 362.395742,6.07371326 C362.064929,6.8627451 361.896766,7.7093514 361.896766,8.61484068 C361.896766,9.54650016 362.064929,10.4088086 362.395742,11.2030745 L362.395742,11.2030745 Z M361.083518,5.6314367 C361.510818,4.7102453 362.091118,3.91467091 362.82442,3.23424544 C363.557722,2.56167104 364.4137,2.03041577 365.390976,1.64178814 C366.368252,1.25839456 367.400663,1.06604352 368.500616,1.06604352 C369.601947,1.06604352 370.63298,1.25839456 371.596472,1.64178814 C372.573748,2.03041577 373.411807,2.56167104 374.139595,3.23424544 C374.872897,3.91467091 375.446306,4.7102453 375.873605,5.6314367 C376.302284,6.55393662 376.514555,7.54317057 376.514555,8.61484068 C376.514555,9.71006398 376.302284,10.7189256 375.873605,11.6532021 C375.446306,12.578319 374.872897,13.377819 374.139595,14.0608614 C373.411807,14.7452124 372.573748,15.2817018 371.596472,15.6572443 C370.63298,16.0367123 369.601947,16.2264463 368.500616,16.2264463 C367.400663,16.2264463 366.368252,16.0367123 365.390976,15.6572443 C364.4137,15.2817018 363.557722,14.7452124 362.82442,14.0608614 C362.091118,13.377819 361.510818,12.578319 361.083518,11.6532021 C360.65484,10.7189256 360.443946,9.71006398 360.443946,8.61484068 C360.443946,7.54317057 360.65484,6.55393662 361.083518,5.6314367 L361.083518,5.6314367 Z" id="Fill-1" fill="#FEFEFE" sketch:type="MSShapeGroup" mask="url(#mask-4)"></path>
                        </g>
                        <path d="M241.247281,99.8711491 C237.33542,104.533372 236.031466,106.005446 235.334002,107.562574 C238.611806,104.802925 240.935765,101.644181 249.852548,97.6950961 C249.000705,96.1026388 243.367239,97.2292664 241.247281,99.8711491" id="Fill-4" stroke="none" fill="#FEFEFE" fill-rule="evenodd" sketch:type="MSShapeGroup"></path>
                        <path d="M210.788246,125.620935 C210.738624,125.927126 209.779267,129.529456 209.706213,129.827796 C217.58507,131.715977 225.374333,131.29202 230.04982,130.754222 C230.696283,130.170626 231.266935,129.610584 231.790722,129.089796 C246.116293,114.630755 266.191115,105.01582 279.595924,101.520788 C276.038309,97.0208206 269.014051,98.2573631 263.532207,99.8040225 C241.320887,106.069171 230.22901,118.797053 204.880481,101.27348 C198.490281,96.8520228 190.113826,100.402012 190.113826,100.402012 C190.113826,100.402012 212.068767,115.367447 210.788246,125.620935" id="Fill-6" stroke="none" fill="#FEFEFE" fill-rule="evenodd" sketch:type="MSShapeGroup"></path>
                        <path d="M252.457423,97.7959823 C248.446318,99.5755566 241.801116,104.451067 238.9961,106.555152 C244.703999,105.020269 249.783353,100.87229 263.877355,97.7305567 C262.114399,96.3278335 257.891023,95.3896314 252.457423,97.7959823" id="Fill-8" stroke="none" fill="#FEFEFE" fill-rule="evenodd" sketch:type="MSShapeGroup"></path>
                        <path d="M200.131251,141.683425 C194.190405,153.937626 183.474828,166.973008 166.524808,162.234891 C186.588603,173.128241 209.432603,159.578615 223.978716,144.522893 C223.485254,144.530744 222.995927,144.532052 222.507978,144.532052 C212.943354,144.532052 205.192686,143.04035 200.131251,141.683425" id="Fill-10" stroke="none" fill="#FEFEFE" fill-rule="evenodd" sketch:type="MSShapeGroup"></path>
                        <path d="M203.550338,133.423452 C209.691051,134.992356 219.531352,136.635846 231.560531,135.574644 C232.275914,134.598495 232.955459,133.635431 233.574354,132.691995 C214.69735,134.26875 204.414587,130.773719 204.414587,130.773719 L203.550338,133.423452 Z" id="Fill-12" stroke="none" fill="#FEFEFE" fill-rule="evenodd" sketch:type="MSShapeGroup"></path>
                        <path d="M202.523303,136.197756 C202.170436,137.104554 201.788623,138.034905 201.377863,138.978341 C206.992032,140.422937 215.906058,142.011469 226.763608,141.51816 C227.607181,140.565564 228.403888,139.612969 229.173028,138.665607 C227.303936,138.779448 225.466547,138.839639 223.713239,138.839639 C214.773024,138.839639 207.486873,137.49449 202.523303,136.197756" id="Fill-14" stroke="none" fill="#FEFEFE" fill-rule="evenodd" sketch:type="MSShapeGroup"></path>
                        <g id="Group-18" stroke="none" stroke-width="1" fill="none" fill-rule="evenodd" sketch:type="MSLayerGroup">
                            <mask id="mask-6" sketch:name="Clip 17" fill="white">
                                <use xlink:href="#path-5"></use>
                            </mask>
                            <g id="Clip-17"></g>
                            <path d="M32.2507992,42.272479 C27.4457437,42.272479 23.4525579,43.8845639 20.2698633,47.1061168 C17.0981959,50.3355208 15.5020243,54.470414 15.5020243,59.5107965 C15.5020243,64.5904343 17.1174933,68.7685084 20.3567017,72.0450187 C23.5986669,75.3319972 27.582204,76.9676353 32.3059347,76.9676353 C37.1950717,76.9676353 41.2406362,75.3555503 44.4550337,72.1326889 C47.676323,68.9045935 49.2862785,64.6807216 49.2862785,59.4545306 C49.2862785,54.344797 47.676323,50.1942017 44.4550337,47.0276062 C41.2406362,43.8570852 37.1702608,42.272479 32.2507992,42.272479 L32.2507992,42.272479 Z M48.6025988,30.1700652 L64.1535558,30.1700652 L64.1535558,88.9601342 L48.6025988,88.9601342 L48.6025988,82.7486348 C45.5618781,85.4965068 42.5211573,87.4618896 39.463896,88.6722619 C36.4149049,89.874783 33.1026421,90.4780064 29.5339993,90.4780064 C21.5324654,90.4780064 14.6115866,87.5325492 8.76033569,81.6416349 C2.92286867,75.752029 -0.000689193273,68.4256787 -0.000689193273,59.6795944 C-0.000689193273,50.5946059 2.82362484,43.1557236 8.48190161,37.3472454 C14.1401784,31.5518523 21.003165,28.6508845 29.0791318,28.6508845 C32.7980187,28.6508845 36.286715,29.3208419 39.5507343,30.6542141 C42.8147537,31.9915119 45.8306634,33.9791394 48.6025988,36.6471923 L48.6025988,30.1700652 Z" id="Fill-16" fill="#FEFEFE" sketch:type="MSShapeGroup" mask="url(#mask-6)"></path>
                        </g>
                        <mask id="mask-8" sketch:name="Clip 20" fill="white">
                            <use xlink:href="#path-7"></use>
                        </mask>
                        <g id="Clip-20"></g>
                        <path d="M70.6629862,30.1703269 L86.2180784,30.1703269 L86.2180784,88.9603959 L70.6629862,88.9603959 L70.6629862,30.1703269 Z M78.453627,5.95110582 C81.1704269,5.95110582 83.5095489,6.88930786 85.4544523,8.75916939 C87.4062476,10.6408075 88.3876588,12.9084562 88.3876588,15.5738921 C88.3876588,18.2026898 87.425545,20.4454768 85.4916687,22.3061787 C83.5577924,24.1590296 81.2448598,25.0854551 78.5583844,25.0854551 C75.786449,25.0854551 73.4349216,24.136785 71.4831262,22.2486043 C69.5299525,20.3578066 68.5609468,18.0587536 68.5609468,15.3579879 C68.5609468,12.7605945 69.5299525,10.5505203 71.4596937,8.70813748 C73.3921916,6.8696802 75.7175297,5.95110582 78.453627,5.95110582 L78.453627,5.95110582 Z" id="Fill-19" stroke="none" fill="#FEFEFE" fill-rule="evenodd" sketch:type="MSShapeGroup" mask="url(#mask-8)"></path>
                        <path d="M161.967173,42.272479 C157.061495,42.272479 153.002147,43.8570852 149.767074,47.0276062 C146.541649,50.1942017 144.92618,54.344797 144.92618,59.4545306 C144.92618,64.6807216 146.541649,68.9045935 149.767074,72.1326889 C153.002147,75.3555503 157.061495,76.9676353 161.967173,76.9676353 C166.71158,76.9676353 170.703387,75.3319972 173.955001,72.0450187 C177.206615,68.7685084 178.824841,64.5904343 178.824841,59.5107965 C178.824841,54.470414 177.231426,50.3355208 174.036326,47.1061168 C170.845361,43.8845639 166.816337,42.272479 161.967173,42.272479 L161.967173,42.272479 Z M145.602968,30.1700652 L145.602968,36.6471923 C148.419012,33.9791394 151.459733,31.9915119 154.723752,30.6542141 C157.987771,29.3208419 161.488873,28.6508845 165.213273,28.6508845 C173.303024,28.6508845 180.178416,31.5518523 185.829801,37.3472454 C191.488078,43.1557236 194.324797,50.5946059 194.324797,59.6795944 C194.324797,68.4256787 191.402618,75.752029 185.549989,81.6416349 C179.700116,87.5325492 172.773724,90.4780064 164.746,90.4780064 C161.178736,90.4780064 157.858203,89.874783 154.780266,88.6722619 C151.709221,87.4618896 148.643689,85.4965068 145.602968,82.7486348 C145.602968,82.7486348 144.913775,98.1681227 145.441697,107.136654 C146.385892,123.264046 146.876597,150.556958 171.76061,159.443053 C140.741399,153.768043 134.411848,127.30996 131.7874,109.871441 C130.171931,99.1717502 130.165039,30.1700652 130.165039,30.1700652 L145.602968,30.1700652 Z" id="Fill-21" stroke="none" fill="#FEFEFE" fill-rule="evenodd" sketch:type="MSShapeGroup" mask="url(#mask-8)"></path>
                        <path d="M313.903965,8.49393431 L329.460436,8.49393431 L329.460436,30.1707195 L338.692869,30.1707195 L338.692869,42.869814 L329.460436,42.869814 L329.460436,88.967331 L313.903965,88.967331 L313.903965,42.869814 L305.939648,42.869814 L305.939648,30.1707195 L313.903965,30.1707195 L313.903965,8.49393431 Z" id="Fill-22" stroke="none" fill="#FEFEFE" fill-rule="evenodd" sketch:type="MSShapeGroup" mask="url(#mask-8)"></path>
                        <path d="M343.885251,30.1700652 L357.210114,30.1700652 L357.210114,37.5749262 C358.645014,34.6517138 360.567863,32.4337884 362.955229,30.9224588 C365.353621,29.4124377 367.978069,28.6561186 370.827194,28.6561186 C372.839639,28.6561186 374.934786,29.1585866 377.149854,30.1700652 L377.137448,43.1871278 C375.320735,42.3235109 371.553604,40.903777 367.797501,41.5671918 C365.44873,41.9859152 363.389421,42.9725321 361.736735,45.7858297 C360.082671,48.5952018 359.261153,54.1079566 359.261153,62.3214771 L359.310775,65.1858066 L359.310775,88.9601342 L343.885251,88.9601342 L343.885251,30.1700652 Z" id="Fill-23" stroke="none" fill="#FEFEFE" fill-rule="evenodd" sketch:type="MSShapeGroup" mask="url(#mask-8)"></path>
                        <path d="M267.925952,30.1700652 L281.256329,30.1700652 L281.256329,37.5749262 C282.699499,34.6517138 284.619592,32.4337884 287.020741,30.9224588 C289.41362,29.4124377 292.024284,28.6561186 294.872031,28.6561186 C296.892746,28.6561186 298.994785,29.1585866 301.20296,30.1700652 L301.183663,43.1871278 C299.373841,42.3235109 295.613603,40.903777 291.856121,41.5671918 C289.50735,41.9859152 287.442527,42.9725321 285.789842,45.7858297 C284.141292,48.5952018 283.308746,54.1079566 283.308746,62.3214771 L283.369395,65.1858066 L283.369395,88.9601342 L267.925952,88.9601342 L267.925952,30.1700652 Z" id="Fill-24" stroke="none" fill="#FEFEFE" fill-rule="evenodd" sketch:type="MSShapeGroup" mask="url(#mask-8)"></path>
                        <path d="M92.5862243,30.1700652 L105.909709,30.1700652 L105.909709,37.5749262 C107.359771,34.6517138 109.281242,32.4337884 111.6755,30.9224588 C114.068379,29.4124377 116.684556,28.6561186 119.532303,28.6561186 C121.547504,28.6561186 123.660571,29.1585866 125.861854,30.1700652 L125.857719,43.1871278 C124.034113,42.3235109 120.265604,40.903777 116.516393,41.5671918 C114.167622,41.9859152 112.108313,42.9725321 110.447357,45.7858297 C108.79605,48.5952018 107.974532,54.1079566 107.974532,62.3214771 L108.031045,65.1858066 L108.031045,88.9601342 L92.5862243,88.9601342 L92.5862243,30.1700652 Z" id="Fill-25" stroke="none" fill="#FEFEFE" fill-rule="evenodd" sketch:type="MSShapeGroup" mask="url(#mask-8)"></path>
                        <path d="M235.70148,43.7982023 C235.70148,43.1282449 235.12945,42.585213 234.419581,42.585213 L227.275403,42.585213 C226.573805,42.585213 226.001774,43.1282449 226.001774,43.7982023 L226.001774,45.6732978 L235.70148,45.6732978 L235.70148,43.7982023 Z" id="Fill-26" stroke="none" fill="#FEFEFE" fill-rule="evenodd" sketch:type="MSShapeGroup" mask="url(#mask-8)"></path>
                        <path d="M250.773448,60.4101358 L250.773448,66.1113161 C250.773448,70.3181774 247.184129,73.7203048 242.759509,73.7203048 L218.949259,73.7203048 C214.516368,73.7203048 210.931185,70.3181774 210.931185,66.1113161 L210.931185,60.4101358 L210.931185,53.2813705 C210.931185,49.0784347 214.516368,45.6723819 218.949259,45.6723819 L224.111317,45.6723819 L224.111317,43.7985948 C224.111317,42.1420205 225.529677,40.7929462 227.274714,40.7929462 L234.427162,40.7929462 C236.172199,40.7929462 237.597451,42.1420205 237.597451,43.7985948 L237.597451,45.6723819 L242.759509,45.6723819 C247.184129,45.6723819 250.773448,49.0784347 250.773448,53.2813705 L250.773448,60.4101358 Z M230.850249,28.517809 C212.820953,28.517809 198.208677,42.391946 198.208677,59.4902529 C198.208677,76.5924853 212.820953,90.4548457 230.850249,90.4548457 C248.87541,90.4548457 263.505605,76.5924853 263.505605,59.4902529 C263.505605,42.391946 248.87541,28.517809 230.850249,28.517809 L230.850249,28.517809 Z" id="Fill-27" stroke="none" fill="#FEFEFE" fill-rule="evenodd" sketch:type="MSShapeGroup" mask="url(#mask-8)"></path>
                    </g>
                </g>
            </g>
        </g>
    </g>
</svg>